<?xml version="1.0" encoding="UTF-8"?>
<svg xmlns="http://www.w3.org/2000/svg" xmlns:xlink="http://www.w3.org/1999/xlink" viewBox="0 0 1040 500">
  <defs>
    <style>
      .cls-1 {
        fill: #00901e;
      }

      .cls-2 {
        fill: #fff;
      }

      .cls-3 {
        font-family: Felipa-Regular, Felipa;
        font-size: 149px;
      }

      .cls-3, .cls-4, .cls-5 {
        fill: #f2e8c3;
      }

      .cls-6 {
        font-size: 80px;
      }

      .cls-6, .cls-7 {
        fill: #fcfffd;
      }

      .cls-8, .cls-9, .cls-10 {
        fill: #343c60;
      }

      .cls-11, .cls-12, .cls-13, .cls-14, .cls-15, .cls-16, .cls-17 {
        fill: none;
      }

      .cls-11, .cls-12, .cls-16, .cls-17 {
        stroke-miterlimit: 10;
      }

      .cls-11, .cls-13 {
        stroke-width: 2px;
      }

      .cls-11, .cls-13, .cls-14, .cls-16, .cls-17 {
        stroke: #25293d;
      }

      .cls-18 {
        fill: #ff7a00;
      }

      .cls-19 {
        fill: #00a182;
      }

      .cls-20 {
        fill: #25293d;
      }

      .cls-21 {
        fill: #cc756e;
      }

      .cls-22 {
        fill: #ff8063;
      }

      .cls-22, .cls-9 {
        font-size: 43.04px;
      }

      .cls-4 {
        font-size: 22.84px;
      }

      .cls-4, .cls-10 {
        font-family: VerdanaPro, 'Verdana Pro';
      }

      .cls-23 {
        fill: #ffc37d;
      }

      .cls-12 {
        stroke: #fff;
        stroke-width: 3px;
      }

      .cls-24 {
        clip-path: url(#clippath-1);
      }

      .cls-10 {
        font-size: 35.53px;
      }

      .cls-25 {
        letter-spacing: 0em;
      }

      .cls-13, .cls-14 {
        stroke-linejoin: round;
      }

      .cls-26 {
        font-family: VerdanaPro-CondSemibold, 'Verdana Pro';
        font-weight: 600;
      }

      .cls-27 {
        fill: #0caf8f;
      }

      .cls-14, .cls-16 {
        stroke-width: 1.3px;
      }

      .cls-28 {
        clip-path: url(#clippath);
      }

      .cls-29 {
        fill: #c05a58;
      }

      .cls-30 {
        fill: #069176;
      }

      .cls-17 {
        stroke-width: .75px;
      }
    </style>
    <clipPath id="clippath">
      <rect class="cls-15" width="1040" height="500"/>
    </clipPath>
    <clipPath id="clippath-1">
      <rect class="cls-15" width="1040" height="500"/>
    </clipPath>
  </defs>
  <g id="BACKGROUND">
    <rect class="cls-19" width="1040" height="500"/>
  </g>
  <g id="OBJECTS">
    <g>
      <g>
        <g>
          <g>
            <path class="cls-27" d="m907.18,117.52c-.54-3.77-14.29-12.29-15.1-14.07h-.01c-.81,1.77-14.56,10.3-15.1,14.07-.54,3.77,2.9,5.48,2.9,5.48,0-.28,12.2-.03,12.2-.03,0,0,12.21-.25,12.21.03,0,0,3.44-1.72,2.9-5.48Z"/>
            <rect class="cls-30" x="875.79" y="122.54" width="32.57" height="199.85"/>
            <rect class="cls-27" x="875.79" y="182.43" width="32.57" height="94.29"/>
            <g>
              <path class="cls-27" d="m884,129.07c-1.58,0-2.86,1.17-2.86,2.61v9.65h5.71v-9.65c0-1.44-1.28-2.61-2.86-2.61Z"/>
              <path class="cls-27" d="m892.07,129.07c-1.58,0-2.86,1.17-2.86,2.61v9.65h5.71v-9.65c0-1.44-1.28-2.61-2.86-2.61Z"/>
              <path class="cls-27" d="m900.15,129.07c-1.58,0-2.86,1.17-2.86,2.61v9.65h5.71v-9.65c0-1.44-1.28-2.61-2.86-2.61Z"/>
            </g>
          </g>
          <g>
            <path class="cls-27" d="m552.59,117.52c-.54-3.77-14.29-12.29-15.1-14.07h0c-.81,1.77-14.56,10.3-15.1,14.07-.54,3.77,2.9,5.48,2.9,5.48,0-.28,12.2-.03,12.2-.03,0,0,12.21-.25,12.21.03,0,0,3.44-1.72,2.9-5.48Z"/>
            <rect class="cls-30" x="521.2" y="122.54" width="32.57" height="199.85"/>
            <rect class="cls-27" x="521.2" y="182.43" width="32.57" height="94.29"/>
            <g>
              <path class="cls-27" d="m529.4,129.07c-1.58,0-2.86,1.17-2.86,2.61v9.65h5.71v-9.65c0-1.44-1.28-2.61-2.86-2.61Z"/>
              <path class="cls-27" d="m537.48,129.07c-1.58,0-2.86,1.17-2.86,2.61v9.65h5.71v-9.65c0-1.44-1.28-2.61-2.86-2.61Z"/>
              <path class="cls-27" d="m545.56,129.07c-1.58,0-2.86,1.17-2.86,2.61v9.65h5.71v-9.65c0-1.44-1.28-2.61-2.86-2.61Z"/>
            </g>
          </g>
        </g>
        <g>
          <polygon class="cls-30" points="454.81 76.03 453.39 44.26 451.49 44.26 450.07 76.27 454.81 76.03"/>
          <path class="cls-27" d="m466.63,89.67s-3.93-16.06-14.27-17.84c0,0-9.28,4.28-11.78,18.2l26.05-.36Z"/>
          <path class="cls-27" d="m438.42,92.01v335.78h30.45V92.01h-30.45Z"/>
          <path class="cls-30" d="m460.2,136.69c-1.66-1.6-6.48-5.33-6.49-5.32,0,0-4.83,3.73-6.49,5.32-1.68,1.62-1.34,3.36-1.34,3.36v17.28l7.83-.12,7.83.12v-17.28s.34-1.74-1.34-3.36Z"/>
          <path class="cls-30" d="m456.74,97.16c-.77-.74-3.02-2.48-3.02-2.48,0,0-2.25,1.74-3.02,2.48-.78.75-.63,1.56-.63,1.56v8.05l3.65-.06,3.65.06v-8.05s.16-.81-.63-1.56Z"/>
          <path class="cls-30" d="m461.68,209.94c-2.04-1.96-7.95-6.54-7.96-6.53,0,0-5.92,4.57-7.96,6.53-2.06,1.98-1.65,4.12-1.65,4.12v21.2l9.61-.15,9.61.15v-21.2s.41-2.14-1.65-4.12Z"/>
          <rect class="cls-30" x="431.27" y="88.28" width="42.87" height="5.9" transform="translate(905.41 182.47) rotate(180)"/>
          <polygon class="cls-30" points="435.02 118.73 472.26 118.73 476.63 109.41 430.65 109.41 435.02 118.73"/>
          <polygon class="cls-30" points="435.02 175.83 472.26 175.83 476.63 166.51 430.65 166.51 435.02 175.83"/>
        </g>
        <g>
          <polygon class="cls-30" points="974.94 76.03 973.52 44.26 971.62 44.26 970.2 76.27 974.94 76.03"/>
          <path class="cls-27" d="m986.76,89.67s-3.93-16.06-14.27-17.84c0,0-9.28,4.28-11.78,18.2l26.05-.36Z"/>
          <path class="cls-27" d="m958.54,92.01v335.78h30.45V92.01h-30.45Z"/>
          <path class="cls-30" d="m980.33,136.69c-1.66-1.6-6.48-5.33-6.49-5.32,0,0-4.83,3.73-6.49,5.32-1.68,1.62-1.34,3.36-1.34,3.36v17.28l7.83-.12,7.83.12v-17.28s.34-1.74-1.35-3.36Z"/>
          <path class="cls-30" d="m976.87,97.16c-.77-.74-3.02-2.48-3.02-2.48,0,0-2.25,1.74-3.02,2.48-.78.75-.63,1.56-.63,1.56v8.05l3.65-.06,3.65.06v-8.05s.16-.81-.63-1.56Z"/>
          <path class="cls-30" d="m981.8,209.94c-2.04-1.96-7.95-6.54-7.96-6.53,0,0-5.92,4.57-7.96,6.53-2.06,1.98-1.65,4.12-1.65,4.12v21.2l9.61-.15,9.61.15v-21.2s.41-2.14-1.65-4.12Z"/>
          <rect class="cls-30" x="951.4" y="88.28" width="42.87" height="5.9" transform="translate(1945.67 182.47) rotate(180)"/>
          <polygon class="cls-30" points="955.15 118.73 992.39 118.73 996.76 109.41 950.78 109.41 955.15 118.73"/>
          <polygon class="cls-30" points="955.15 175.83 992.39 175.83 996.76 166.51 950.78 166.51 955.15 175.83"/>
        </g>
        <g>
          <g>
            <path class="cls-30" d="m702.82,203.14c0,3.14-2.55,5.69-5.69,5.69s-5.69-2.55-5.69-5.69,2.55-5.69,5.69-5.69,5.69,2.55,5.69,5.69Z"/>
            <path class="cls-30" d="m700.5,194.04c0,1.86-1.51,3.37-3.37,3.37s-3.37-1.51-3.37-3.37,1.51-3.37,3.37-3.37,3.37,1.51,3.37,3.37Z"/>
            <path class="cls-27" d="m631.63,258.01s4.09-57.23,70.68-54.77c59.41,2.2,60.31,52.98,60.31,52.98l-130.99,1.78Z"/>
            <path class="cls-30" d="m628.01,275.9v-24.81h144.17v24.81s-144.64-.47-144.17,0Z"/>
          </g>
          <g>
            <g>
              <path class="cls-30" d="m616.94,228.72c-.97-6.75-25.63-22.04-27.08-25.22h-.02c-1.45,3.18-26.11,18.47-27.08,25.22s5.2,9.83,5.2,9.83c0-.5,21.88-.05,21.88-.05,0,0,21.9-.44,21.9.05,0,0,6.17-3.08,5.2-9.83Z"/>
              <rect class="cls-30" x="560.66" y="237.72" width="58.4" height="42.76"/>
              <g>
                <path class="cls-19" d="m575.37,249.42c-2.83,0-5.12,2.1-5.12,4.69v17.3h10.24v-17.3c0-2.59-2.29-4.69-5.12-4.69Z"/>
                <path class="cls-19" d="m589.86,249.42c-2.83,0-5.12,2.1-5.12,4.69v17.3h10.24v-17.3c0-2.59-2.29-4.69-5.12-4.69Z"/>
                <path class="cls-19" d="m604.34,249.42c-2.83,0-5.12,2.1-5.12,4.69v17.3h10.24v-17.3c0-2.59-2.29-4.69-5.12-4.69Z"/>
              </g>
            </g>
            <g>
              <path class="cls-30" d="m845.73,228.72c-.97-6.75-25.63-22.04-27.08-25.22h-.02c-1.45,3.18-26.11,18.47-27.08,25.22-.97,6.75,5.2,9.83,5.2,9.83,0-.5,21.88-.05,21.88-.05,0,0,21.9-.44,21.9.05,0,0,6.17-3.08,5.2-9.83Z"/>
              <rect class="cls-30" x="789.44" y="237.72" width="58.4" height="42.76"/>
              <g>
                <path class="cls-19" d="m804.16,249.42c-2.83,0-5.12,2.1-5.12,4.69v17.3h10.24v-17.3c0-2.59-2.29-4.69-5.12-4.69Z"/>
                <path class="cls-19" d="m818.64,249.42c-2.83,0-5.12,2.1-5.12,4.69v17.3h10.24v-17.3c0-2.59-2.29-4.69-5.12-4.69Z"/>
                <path class="cls-19" d="m833.12,249.42c-2.83,0-5.12,2.1-5.12,4.69v17.3h10.24v-17.3c0-2.59-2.29-4.69-5.12-4.69Z"/>
              </g>
            </g>
          </g>
          <g>
            <polygon class="cls-27" points="426.38 274.57 994.82 275.07 994.82 426.38 425.52 426.38 426.38 274.57"/>
            <path class="cls-30" d="m612,310.34c-3.59-2.85-14.02-9.51-14.03-9.5,0-.01-10.44,6.65-14.03,9.5-3.64,2.88-2.91,5.99-2.91,5.99v30.84l16.94-.22,16.94.22v-30.84s.73-3.11-2.91-5.99Z"/>
            <path class="cls-30" d="m560.47,313.61c-2.7-2.6-10.54-8.67-10.55-8.66,0-.01-7.85,6.06-10.55,8.66-2.73,2.63-2.19,5.46-2.19,5.46v28.1l12.74-.2,12.74.2v-28.1s.55-2.83-2.19-5.46Z"/>
            <path class="cls-30" d="m795.55,310.34c3.59-2.85,14.02-9.51,14.03-9.5,0-.01,10.44,6.65,14.03,9.5,3.64,2.88,2.91,5.99,2.91,5.99v30.84l-16.94-.22-16.94.22v-30.84s-.73-3.11,2.91-5.99Z"/>
            <path class="cls-30" d="m847.08,313.61c2.7-2.6,10.54-8.67,10.55-8.66,0-.01,7.85,6.06,10.55,8.66,2.73,2.63,2.19,5.46,2.19,5.46v28.1l-12.74-.2-12.74.2v-28.1s-.55-2.83,2.19-5.46Z"/>
          </g>
          <path class="cls-30" d="m728.33,311.05c-14.44-8.81-25.82-14.42-28.01-19.63h-.44c-2.19,5.21-13.57,10.82-28.01,19.63-14.44,8.81-15.76,18.83-15.76,18.83v96.5h87.98v-96.5s-1.31-10.02-15.76-18.83Z"/>
        </g>
      </g>
      <rect class="cls-30" y="383.75" width="1040" height="55.08"/>
      <rect class="cls-27" y="435.54" width="1040" height="64.46"/>
    </g>
    <g class="cls-28">
      <g>
        <g>
          <g>
            <g>
              <path class="cls-21" d="m684.19,254.51s-44.9,4.31-58.55,24.2c-13.65,19.9-68.47,208.97,11.06,224.13,10.3,1.96,49.62-64.08,47.49-248.34Z"/>
              <path class="cls-23" d="m690.4,253.46s-30.61-4.41-55.14,15c-10.7,8.46-33.25,38.16-33.25,38.16l74.46,37.42,13.93-90.59Z"/>
              <path class="cls-16" d="m640.22,279.67s7.19,24.83,11.11,31.36"/>
            </g>
            <g>
              <path class="cls-21" d="m828.61,475.01s15.25-87.19,25.67-190.74c3.59-35.61-164.27-63.26-188.93-7.71-6.06,13.64.3,175.08.04,183.07-.15,4.86,158.99,21.51,163.21,15.39Z"/>
              <path class="cls-23" d="m720.07,244.89s-16.15,57.18,36,62.85c66.16,7.2,52.45-30.76,62.24-57.13,0,0,39.12,16.1,43.55,25.95,4.43,9.85-3.53,201.96-3.53,201.96l5.69,27.87-211.56,6.91,8.12-97.01s-2.76-12.94-3.14-32.39c-.71-36.09,1.01-90.76,3.1-99.85,6.91-30.09,43.39-41,59.53-39.17Z"/>
              <path class="cls-11" d="m674.12,490.15s60.03-3.93,92.56-23.56"/>
              <path class="cls-16" d="m744.8,442.47s26.93-3.37,27.49,1.12c.56,4.49-38.71,5.05-27.49-1.12Z"/>
              <path class="cls-16" d="m722.38,322.93s13.39-11.3,15.2-6.66c.62,1.58-21.08,9.28-15.2,6.66Z"/>
              <path class="cls-16" d="m682.04,282.29s8.69-9.53,20.26-7.19"/>
              <path class="cls-16" d="m667.01,331.95s19.6-17.64,20.26-13.72c.65,3.92-18.95,17.64-20.26,13.72Z"/>
              <path class="cls-11" d="m655.9,298.62l3.11,29.93s-6.64,76.78,3.77,91.83c10.42,15.05,19.5,15.09,19.5,15.09"/>
              <path class="cls-11" d="m711.65,272.73s-2.37,28.7,26.91,37.9c36.09,11.34,71.75,3.34,76.56-20.07"/>
              <path class="cls-16" d="m747.08,317.87s35.85,32.41,49.44,32.96"/>
              <path class="cls-16" d="m835.58,311.88s7.73,35.85,7.55,44.91"/>
              <g>
                <path class="cls-21" d="m749.65,218.66c5.92-1.74,35.42,10.78,35.42,10.78,0,0,10.95,34.3-22.68,35.24-27.77.78-18.66-44.27-12.73-46.01Z"/>
                <path class="cls-29" d="m785.06,229.43s-29.49-12.52-35.42-10.78c-2.64.78-5.9,10.15-6.26,20.23,11.81,9.79,27.3,12.62,39.39,5.87,1.35-.75,2.7-2.03,3.98-3.68-.04-6.42-1.7-11.65-1.7-11.65Z"/>
              </g>
            </g>
          </g>
          <g>
            <path class="cls-7" d="m763.66,286.34c28.95,4.29,81.06-23.01,81.06-23.01l13.22,8.63s1.5-8.02-2.91-10.9c-4.41-2.88-36.45-22.34-36.45-22.34,0,0-90.03,13.59-105.9.18,0,0-40.15,5.98-47.13,14.84l18.63.77s54.53,28.13,79.47,31.83Z"/>
            <path class="cls-16" d="m703.48,259.86s51.28,20.96,66.59,22.16c15.31,1.2,56.32-13.01,56.32-13.01"/>
            <path class="cls-11" d="m755.61,257.2s77.14,9.23,93.68,6.68"/>
            <path class="cls-11" d="m676.28,250.84s69.21,34.77,87.39,35.5"/>
          </g>
        </g>
        <g>
          <g>
            <path class="cls-21" d="m784.76,203.26s6.59-8.9,12.74-5.51c6.14,3.39-.74,16.81-11.19,13.24l-1.54-7.72Z"/>
            <path class="cls-29" d="m796.12,200.14c4.41,2-.56,9.62-5.46,7.65-4.9-1.97,1.05-9.65,5.46-7.65Z"/>
            <path class="cls-21" d="m757.56,180.54c-3.17.52-6,1.3-8.51,2.29-26.84,10.57-17.96,45.33-3.59,52.67,13.19,6.74,28.12,5.74,38.29-2.89,12.12-10.29,9.8-58.01-26.18-52.07Z"/>
            <path class="cls-8" d="m757.43,219.32s5.09,12.26,9.56,9.88c4.47-2.37,1.48-13.44,1.48-13.44,0,0-7.37-.66-11.04,3.55Z"/>
            <path class="cls-2" d="m768.78,217.08c-.17-.81-.3-1.31-.3-1.31,0,0-7.37-.66-11.04,3.55,0,0,.09.22.26.59,3.28-.18,7.68-.88,11.09-2.84Z"/>
            <path class="cls-29" d="m765.79,221.88c-2.15.87-3.66,2.63-4.26,4.66,1.66,2.12,3.61,3.65,5.46,2.67,2.29-1.21,2.62-4.7,2.4-7.81-1.18-.14-2.42,0-3.6.48Z"/>
            <path class="cls-17" d="m757.43,219.32s5.09,12.26,9.56,9.88c4.47-2.37,1.48-13.44,1.48-13.44,0,0-7.37-.66-11.04,3.55Z"/>
            <path class="cls-18" d="m759.55,191.32c2.17-.58,3.87,3.69.77,4.07-3.32.41-2.95-3.49-.77-4.07Z"/>
            <path class="cls-20" d="m765.96,195.36s8.47-9.28,14.68-1.02c0,0-10.02-.68-13.11,2.78l-1.57-1.75Z"/>
            <path class="cls-20" d="m753.47,197.56s-9.85-7.56-14.62,1.71c0,0,9.76-2.53,13.36.31l1.26-2.02Z"/>
            <g>
              <path class="cls-2" d="m755.67,207.13s-10.38-6.4-16.47,2.19c0,0,12.47,14.39,16.47-2.19Z"/>
              <path class="cls-29" d="m761.77,209.92s.6,3.45-.03,3.36c-.63-.09-1.66-1.46-2.3-1.04-.64.41.96,3.42,2.49,3.09,1.53-.33-.16-5.4-.16-5.4Z"/>
              <path class="cls-29" d="m752.39,220.96c1.47,3.61-.35,7.74-4.05,9.23-3.7,1.49-7.89-.23-9.35-3.83-1.47-3.61.35-7.74,4.05-9.23,3.7-1.49,7.89.23,9.35,3.83Z"/>
              <path class="cls-29" d="m786.96,215.18c1.47,3.61-.35,7.74-4.05,9.23-3.7,1.49-7.89-.23-9.35-3.83-1.47-3.61.35-7.74,4.05-9.23,3.7-1.49,7.89.23,9.35,3.83Z"/>
              <g>
                <path class="cls-2" d="m765.82,205.24s7.41-9.69,16.17-3.84c0,0-6.51,17.89-16.17,3.84Z"/>
                <path class="cls-8" d="m761.77,209.92l-.15,2.99s-1.84-1.7-2.5-1.05c-1.71,1.71,2.45,3.38,2.17,3.31-.28-.07-2.23-2.77-1.49-2.55.74.22,1.62,1.64,2.33,1.24.71-.41-.36-3.94-.36-3.94Z"/>
                <path class="cls-17" d="m756.27,217.11s2.08,2.3,1.32,6.73"/>
                <path class="cls-17" d="m767.87,211.65s-.69,4.64,3.21,7.35"/>
              </g>
              <path class="cls-8" d="m752.21,205.6c-3.38-1.09-8.57-1.66-12.38,2.92,1.77,3.42,4.43,5.43,7.09,4.88,2.74-.57,4.69-3.69,5.29-7.8Z"/>
              <path class="cls-8" d="m777.95,199.7c-6.21-1.18-11.09,4.29-11.98,5.36,1.75,2.81,4.14,4.38,6.53,3.89,3.05-.63,5.14-4.44,5.45-9.25Z"/>
            </g>
            <path class="cls-21" d="m736.39,217.01c.08-1.84-1.33-4.73-3.73-6.56-2.71-2.06-5.96-2.55-9.59.24-4.23,3.24-.09,11.12,6.45,12.45,3.44.7,6.7-1.87,6.84-5.3l.04-.83Z"/>
            <path class="cls-29" d="m724.8,212.86c-4.05,2.62,2.04,9.43,6.58,6.76,4.54-2.67-2.53-9.39-6.58-6.76Z"/>
            <path class="cls-16" d="m734.06,217.04c5.61,29.61,36.83,21.36,36.83,21.36"/>
          </g>
          <path class="cls-8" d="m802.21,198.55s-6.81-28.42-20.21-32.27c-13.4-3.85-27.22,3.47-27.22,3.47,0,0-14.34-.97-23.93,9.46-9.59,10.43-24.45,60.77-20.25,74.63,4.19,13.86,23.3,19.88,29.89,14.38l-1.87-6.34s1.23.75,7.21-.3l-6.23-4.95s6.58,3.73,6.82.11c.25-3.62-.97-21.24-.97-21.24,0,0-13.53-9.26-10.19-34.67,0,0,8.56-20.56,22.65-20.35,0,0,19.2,3.26,23.37,7.1,4.17,3.84,5.02,23.39,5.02,23.39,0,0,2.63-11.38,4.98-12.68.66-.37,2.08,4.31,3.64,11.29-1.09.93-3.06,2.27-4.84,1.76,0,0-1.79,19.18-6.34,21.26,0,0,3.4,18.83,1.48,21.51-1.91,2.69-7.28,5.81-7.28,5.81,0,0,3.53,1.3,9.23-.97,5.7-2.27,7.04-4.64,7.04-4.64,0,0-.07,7.06,3.87,8.81-.07.03-.14.08-.21.11-5.66,2.8-10.14,2.99-10.14,2.99,0,0,6.98,3.72,12.48,1.08l-5.5,2.64s5.13,7.4,13.38,3.45c8.26-3.96,11.52-12.12,11.1-22.13-.42-10.01-16.98-52.72-16.98-52.72Z"/>
          <path class="cls-16" d="m777.94,259.93s13.74.03,16.68-7.93c2.94-7.95-1.54-28.27-1.54-28.27"/>
          <path class="cls-16" d="m757.91,180.49s-14.43-1.81-28.33,26.24"/>
          <path class="cls-16" d="m734.27,183.65s-13.63,53.62-11.55,64.57c2.08,10.95,9.64,19.84,17.76,20.01"/>
          <path class="cls-16" d="m761.61,180.61s21.87,1.5,31.13,16.73"/>
          <path class="cls-16" d="m790.92,195.66s20.87,63.88,17.61,69.67-13.82,4.62-13.82,4.62c0,0,3.82,5.98,13.38,3.45,9.56-2.53,11.06-15.27,11.1-22.13.04-6.85-18.26-57.51-18.26-57.51"/>
        </g>
        <g>
          <g>
            <g>
              <path class="cls-5" d="m890.64,239.6s88.26,26.43,88.19,30.05,50.67,158.3,48.26,159.63c-2.42,1.33-48.12,14.21-48.12,14.21l-108.25-72.82,19.93-131.07Z"/>
              <polyline class="cls-14" points="1025.87 428.73 988.52 418.94 958.62 445.11"/>
              <line class="cls-14" x1="960.9" y1="277.6" x2="986.86" y2="394.44"/>
              <polyline class="cls-13" points="978.83 269.65 955.96 265.63 967.67 280.64 896.11 246.84"/>
            </g>
            <g>
              <path class="cls-18" d="m886.12,240.54s66.99,31.01,66.93,34.63c-.07,3.62,27.95,170.89,25.53,172.22-2.42,1.33-69,1.33-69,1.33l-63.04-73.71,39.58-134.47Z"/>
              <line class="cls-11" x1="953.04" y1="275.17" x2="978.02" y2="434.12"/>
              <polyline class="cls-11" points="940.56 412.45 940.22 272.94 886.12 240.54"/>
              <line class="cls-11" x1="978.58" y1="447.39" x2="909.57" y2="448.72"/>
              <polyline class="cls-14" points="979.68 447.34 940.55 425.18 904.42 448.3"/>
            </g>
            <path class="cls-21" d="m876,216.25c3.12-3.39,15.97-7.65,17.32-8.64s9.21-13.42,12.15-9.82c2.94,3.6-5.37,16.79-4.28,15.8,2.55-2.33,9.75-5.08,9.75-5.08,0,0,7.4-13.23,11.68-11.08s-4.75,11.81-4.75,11.81c0,0,6.93-1.22,8.93,1.95,2,3.17-.5,10.26-.5,10.26,0,0,7.03,1.1,7.17,4.35.14,3.25-3.46,6.2-3.46,6.2,0,0,2.55,11.66,1.17,12.19-1.37.52-12.3-4.6-12.3-4.6l-17.32,11.42s17.7,145.1,14.37,167.41c-6.23,41.78-20.06,76.72-68.41,60.62-40.83-13.6-28.42-77.93-25.62-88.75,2.8-10.82,53.81-148.9,53.81-148.9,0,0-2.82-21.74.29-25.13Z"/>
            <path class="cls-1" d="m863.4,274.69s43.73,16.4,45.18,16.58l-.99-6s9.58,2.89,10.88,7.9c.86,3.33-.39,7.96-8.61,7.1-8.85-.92-62.04-21.45-59.4-27.34s14.71-4.95,14.71-4.95l-1.78,6.7Z"/>
            <g>
              <path class="cls-5" d="m867.67,263.14s36.44,11.36,37.5,11.32c1.05-.04-.75-7.16-.75-7.16,0,0,5.63,1.43,6.85,5.24,1.21,3.81,2.87,9.71-3.81,9.64s-50.43-13.33-49.97-18.96c.46-5.64,13.39-7.24,13.39-7.24l-3.21,7.16Z"/>
              <path class="cls-16" d="m862.43,261.02s35,13.91,46.13,14.05"/>
            </g>
            <path class="cls-12" d="m923.74,273.79s10.05-38.31-.16-51.29c-10.21-12.99-20.18-9.2-20.18-9.2"/>
            <path class="cls-12" d="m941.36,270.82s-7.44-32.7-17.65-45.69c-10.21-12.99-20.31-11.83-20.31-11.83"/>
            <g>
              <path class="cls-21" d="m906.44,216.57c5.7,8.12,24.67-1.02,19.49-7.15-3.44-4.07-21.57,4.19-19.49,7.15Z"/>
              <path class="cls-16" d="m922.93,215.62s-9.86,8.89-16.9,1.3c0,0-1.28-2.58,4.18-4.85s11.19-5.61,14.52-2.74"/>
            </g>
            <g>
              <path class="cls-21" d="m913.27,222.4c4.78,6.81,20.69-.85,16.34-6-2.88-3.41-18.09,3.52-16.34,6Z"/>
              <path class="cls-16" d="m927.09,221.6s-8.27,7.46-14.18,1.09c0,0-1.07-2.16,3.51-4.07s9.39-4.71,12.18-2.3"/>
            </g>
            <path class="cls-16" d="m886.87,224.68s12.27.27,15.66-13.32"/>
            <path class="cls-21" d="m925.03,238.5s-1.34-13,3.17-9.23c4.51,3.77,7.28,15.12,2.96,14.91s-12.3-4.6-12.3-4.6"/>
            <path class="cls-16" d="m925.03,238.5s-1.34-13,3.17-9.23c4.51,3.77,7.28,15.12,2.96,14.91s-12.3-4.6-12.3-4.6"/>
          </g>
          <g>
            <path class="cls-21" d="m723.64,447.92s-72.54,74.93-99.08,72.27c-26.53-2.67-56.1-57.19-37.98-67.37,18.12-10.18,104.37-18.73,109.42-21.99,5.06-3.25,27.63,17.09,27.63,17.09Z"/>
            <path class="cls-29" d="m697.35,473.27c4.06-3.71,7.83-7.25,11.18-10.45-1.6-10.23-5.35-23.07-8.05-31.6-1.93-.77-3.51-1-4.47-.39-.96.61-4.82,1.42-10.57,2.39,1.3,9.01,4.95,29.87,11.91,40.05Z"/>
            <path class="cls-11" d="m581.04,456.54s23.58-15.68,110.6-24.17"/>
            <path class="cls-29" d="m581.09,466.6c20.1,20.97,61.48,42,67.55,45.02-9.49,5.71-18,9.18-24.08,8.57-20.13-2.02-42-33.88-43.47-53.59Z"/>
            <g>
              <g>
                <g>
                  <path class="cls-21" d="m705.17,427.03s-6.87-18.32.24-18.52c4.48-.12,9.8,15.37,13.63,18.6"/>
                  <path class="cls-11" d="m705.17,427.03s-6.87-18.32.24-18.52c4.48-.12,9.8,15.37,13.63,18.6"/>
                </g>
                <g>
                  <polygon class="cls-2" points="740.2 470.47 611.86 258.37 609.15 253.77 604.27 257.44 735.06 473.59 740.2 470.47"/>
                  <path class="cls-5" d="m609.17,260.3s-45.98,55.87-46.4,69.16c-.41,13.29,7.86,29.66,5.99,32.36-1.87,2.7-11.31,11.28-11.31,11.28l44.64,73.48s29.58-24.08,33.71-31.48c4.14-7.4,1.27-41.71,1.27-41.71l26.04-20.14-53.95-92.96Z"/>
                  <path class="cls-18" d="m562.77,329.46c.41-13.29,46.4-69.16,46.4-69.16l12.86,22.15c-16.71,16.17-30.59,36.97-34.09,46.72-6.58,18.29-.74,43.1-7.24,47.44-2.69,1.79-.51,13.07-9.08,19.8l-14.16-23.31s9.44-8.58,11.31-11.28c1.87-2.7-6.41-19.06-5.99-32.36Z"/>
                  <path class="cls-1" d="m615.41,392.67c1.79-1.48,2.71-41.96,7.89-50.67,3.84-6.46,14.98-10.53,23.9-16.16l15.92,27.43-26.04,20.14s2.86,34.31-1.27,41.71c-4.14,7.4-33.71,31.48-33.71,31.48l-13.82-22.76c10.55-12.29,25.98-30.19,27.15-31.16Z"/>
                </g>
                <path class="cls-21" d="m713.98,463.48s18.47-6.83,19.9-11.18c1.44-4.35-2.69-7.06-2.69-7.06,0,0,3.98-6.79.85-8.41-3.13-1.61-9.33-1.54-9.33-1.54,0,0,3.23-6.27,1.31-8.06-1.92-1.79-9.52-5.65-12.82-5.58s-18.93,6.49-19.56,10.72c-.63,4.23,7.47,17.13,9.1,19.79,1.63,2.66,9.77,13.07,13.25,11.32Z"/>
                <path class="cls-11" d="m705.96,458.74c2.85,3.04,6.13,5.69,8.02,4.74,0,0,18.47-6.83,19.9-11.18,1.44-4.35-2.69-7.06-2.69-7.06,0,0,3.98-6.79.85-8.41-3.13-1.61-9.33-1.54-9.33-1.54,0,0,3.23-6.27,1.31-8.06-1.92-1.79-9.52-5.65-12.82-5.58s-18.93,6.49-19.56,10.72c-.2,1.36.5,3.61,1.59,6.12"/>
              </g>
              <line class="cls-14" x1="731.2" y1="445.24" x2="718.27" y2="451.27"/>
              <path class="cls-14" d="m707.48,439.95s2.94,1.72,4.89.36c1.95-1.36,14.16-6.52,19.67-3.48"/>
              <path class="cls-14" d="m702.71,429.36s1.59,3.53,4.59,2.02,15.53-5.69,16.71-4.15"/>
            </g>
          </g>
        </g>
      </g>
    </g>
    <g class="cls-24">
      <g>
        <g>
          <g>
            <path class="cls-18" d="m952.44,177.11s-1.26-34.96,35.36-41.25c37.72-6.48,44.83,31.8,43.32,49.5-2.65,30.94-20.04,49.21-39.49,49.8-19.45.59-41.25-29.17-39.19-58.05Z"/>
            <path class="cls-7" d="m1011.95,143.99c5.66-.33,10.98,9.65,4.99,10.32-5.99.67-10.65-9.98-4.99-10.32Z"/>
            <path class="cls-18" d="m989.33,235.16s-2.93,7.82-1.63,8.47,8.8,1.63,8.47-.98c-.33-2.61-3.58-8.47-3.58-8.47l-3.26.98Z"/>
          </g>
          <path class="cls-11" d="m992.59,234.18s32.13-.02,38.37-42.69"/>
          <path class="cls-11" d="m957.07,205.54s-22.84-60.27,30.73-69.68"/>
        </g>
        <g>
          <g>
            <path class="cls-1" d="m802.41,58.19s-1.44-39.91,40.37-47.1c43.06-7.4,51.18,36.31,49.45,56.52-3.03,35.32-22.88,56.18-45.08,56.85-22.2.67-47.1-33.3-44.74-66.27Z"/>
            <path class="cls-7" d="m871.72,23.4c4.66-1,9.65,11.31,4.33,12.64-3.37.84-8.13-11.83-4.33-12.64Z"/>
            <path class="cls-1" d="m844.52,124.47s-3.35,8.93-1.86,9.67c1.49.74,10.04,1.86,9.67-1.12s-4.09-9.67-4.09-9.67l-3.72,1.12Z"/>
          </g>
          <path class="cls-11" d="m808.93,91.75s13.23,30.25,35.59,32.72"/>
          <path class="cls-11" d="m847.15,124.47s44.16,3.71,44.37-72.25"/>
        </g>
        <g>
          <g>
            <path class="cls-18" d="m578.84,25.2s-1.26-34.96,35.36-41.25c37.72-6.48,44.83,31.8,43.32,49.5-2.65,30.94-20.04,49.21-39.49,49.8-19.45.59-41.25-29.17-39.19-58.05Z"/>
            <path class="cls-7" d="m644.08-3.98c4.08,1.27,5.86,9.68,2.29,9.43-3.57-.25-6.37-10.7-2.29-9.43Z"/>
            <path class="cls-18" d="m615.73,83.25s-2.93,7.82-1.63,8.47c1.3.65,8.8,1.63,8.47-.98-.33-2.61-3.58-8.47-3.58-8.47l-3.26.98Z"/>
          </g>
          <path class="cls-11" d="m581.14,46.22s8.17,37.71,37.85,36.06c29.68-1.66,41.66-33.51,37.58-58.99"/>
        </g>
        <g>
          <g>
            <path class="cls-5" d="m428.33,364.4s-1.65-45.54,46.06-53.74c49.13-8.44,58.4,41.42,56.42,64.48-3.45,40.3-26.1,64.1-51.43,64.87-25.33.77-53.74-38-51.05-75.61Z"/>
            <path class="cls-5" d="m476.38,440.02s-3.82,10.19-2.12,11.04c1.7.85,11.46,2.12,11.04-1.27-.42-3.4-4.67-11.04-4.67-11.04l-4.24,1.27Z"/>
          </g>
          <path class="cls-7" d="m514.04,328.17c3.01-.25,5.76,10.77,4.51,12.02-3.41,3.41-7.51-11.77-4.51-12.02Z"/>
          <path class="cls-11" d="m429.39,387.03s-15.28-60.36,41.57-76.39"/>
        </g>
        <g>
          <path class="cls-1" d="m933.39,502.86s-1.52-41.9,42.38-49.44c45.2-7.77,53.73,38.11,51.91,59.33-3.18,37.08-24.01,58.97-47.32,59.68-23.31.71-49.44-34.96-46.97-69.57Z"/>
          <path class="cls-7" d="m1012.25,469.53c2.76-.23,5.3,9.91,4.15,11.06-3.13,3.13-6.91-10.83-4.15-11.06Z"/>
          <path class="cls-11" d="m934.37,523.68s-14.06-55.53,38.25-70.28"/>
        </g>
        <g>
          <g>
            <path class="cls-18" d="m337.44,483.41s-1.17-32.39,32.76-38.22c34.95-6.01,41.54,29.46,40.13,45.87-2.46,28.67-18.57,45.59-36.58,46.14-18.02.55-38.22-27.03-36.31-53.78Z"/>
            <path class="cls-7" d="m396.08,455.36c3.01-.25,5.76,10.77,4.51,12.02-3.41,3.41-7.51-11.77-4.51-12.02Z"/>
          </g>
          <path class="cls-11" d="m374.64,536.29s35.47,3.21,35.97-57.9"/>
        </g>
      </g>
    </g>
    <rect class="cls-18" x="53" y="357.11" width="149.43" height="41.04" rx="20.52" ry="20.52"/>
  </g>
  <g id="TEXTS">
    <text class="cls-4" transform="translate(75.24 385.13)"><tspan x="0" y="0">Shop Now</tspan></text>
    <text class="cls-26" transform="translate(59 321.17)"><tspan class="cls-6" x="0" y="0">50%</tspan><tspan class="cls-22" x="166.72" y="0"> </tspan><tspan class="cls-9" x="179.33" y="0">Off</tspan></text>
    <text class="cls-10" transform="translate(54.23 228.73)"><tspan x="0" y="0">Daily G</tspan><tspan class="cls-25" x="129.29" y="0">r</tspan><tspan x="144.19" y="0">eens</tspan></text>
    <text class="cls-3" transform="translate(45.41 175.54)"><tspan x="0" y="0">SHG</tspan></text>
  </g>
</svg>